<svg xmlns="http://www.w3.org/2000/svg" xmlns:xlink="http://www.w3.org/1999/xlink" version="1.1" id="Layer_2" x="0px" y="0px" viewBox="0 0 1080 1080" style="enable-background:new 0 0 1080 1080;" xml:space="preserve">
<style xmlns="http://www.w3.org/2000/svg" type="text/css">
	.st0{fill:none;stroke:#D3D3D3;stroke-miterlimit:10;stroke-dasharray:12.1401,12.1401;}
	.st1{fill:#E9F8FF;}
	.st2{fill:#F2F2F2;}
	.st3{fill:#FFE3CA;}
	.st4{fill:#0E538C;}
	.st5{fill:#2A94F4;}
	.st6{fill:#00aef0;}
	.st7{fill:#F9CFAC;}
	.st8{fill:#FFD18D;}
</style>
<g xmlns="http://www.w3.org/2000/svg">
	<circle class="st0" cx="897" cy="548" r="123.7"/>
</g>
<g xmlns="http://www.w3.org/2000/svg">
	<g>
		<path class="st1" d="M270,110c-23.4,11.1-46.4,24.2-63.9,43.6c-16,17.8-26.6,40.9-27.2,65c-0.6,22.9,9.6,41.8,23.9,58.9    c13.4,16,30.4,30.9,37.8,50.9c8.8,23.8-1.4,47.4-20,63.1c-20.6,17.5-47.2,22.4-72,31.3c-23,8.2-42.1,21.1-56.3,41.2    c-13.8,19.6-22,42.8-27.2,66c-10,44.7-13,99.4,13.7,139.3c26.5,39.6,74.8,47,119.1,43.6c26.4-2,52.6-7.2,78.7-11.8    c31.3-5.5,62.5-11.4,93.6-17.4c62.6-12.1,125.1-24.6,187.6-36.9c62.7-12.4,125.4-24.7,188-37.1c31.3-6.2,62.7-12.4,94-18.5    c15.7-3.1,31.3-6.2,47-9.3c13.5-2.7,27.4-4.8,40.2-10.1c42.6-17.6,47.7-71.9,29-109.1c-23.5-46.8-73.4-68.7-113.3-98.6    c-21.6-16.2-41-36-51-61.6c-9.3-23.8-10.7-51.7,3.2-74c12.5-20.1,33.6-33,46.6-52.7c12.4-18.7,14.1-41.6,7.6-62.7    c-5.9-19.3-18.7-39.7-35.8-51c-4.4-2.9-9.9-4-15-5c-21.1-4.3-43-5.2-64.4-6c-70.9-2.7-142.2,0.5-212.8,6.8    c-38.3,3.4-76.6,8-114.6,14.5c-33.5,5.7-67,12.7-99.4,23.1C294.7,99.6,282.2,104.3,270,110c-1.7,0.8-0.2,3.4,1.5,2.6    C298.3,100,327.3,92,356,85.4c35.6-8.2,71.8-13.9,108-18.4c73-9.1,146.8-13.6,220.3-13.8c27.7-0.1,55.6,0.4,83.2,2.8    c9.4,0.8,18.8,1.8,28,3.5c5.3,1,11.1,2,15.8,4.7c7.6,4.4,14.2,12.3,19.5,19.2c7,9.3,12.5,19.9,15.9,31.1    c7,23.5,3.1,47.3-12.5,66.4c-14.2,17.6-34.1,30.5-44.6,51.1c-10.6,20.7-9.6,45.2-2.2,66.7c16.9,49.2,63.8,74.1,104.2,101.7    c21.1,14.4,41.6,30.8,55.6,52.5c12.6,19.4,18.7,42.5,15.6,65.6c-3.3,24.5-17.4,43.7-41.1,52c-13.3,4.7-27.6,6.8-41.4,9.5    c-15,3-30,5.9-45,8.9c-61.4,12.1-122.7,24.2-184.1,36.3c-121.8,24-243.3,49.2-365.5,71.1c-27.1,4.9-54.3,10.3-81.8,12.9    c-22.8,2.2-46.4,2.3-68.7-3.8c-22.8-6.3-42.7-20-55.3-40.2c-13.1-20.8-17.8-45.8-18.5-70.1c-0.7-24.7,2.6-49.6,8.9-73.4    c6-22.9,15.3-45.7,30.7-64c8-9.6,17.7-17.5,28.7-23.5c11.9-6.4,24.8-10.4,37.6-14.4c22.6-7.1,45.2-14.7,61.9-32.3    c14.5-15.2,21.6-35.9,15.5-56.5c-5.6-18.8-20-33.4-32.7-47.7c-15.3-17.2-29-35.5-30-59.4c-1.1-25.7,10.1-50.9,27.4-69.5    c17.2-18.6,39.5-31.2,62.1-41.9C273.3,111.8,271.8,109.2,270,110z"/>
	</g>
</g>
<g xmlns="http://www.w3.org/2000/svg">
	<path class="st1" d="M297.2,116.4c-25.8,12.2-51.4,27-69.4,50.4s-27.1,56.9-16.2,85c14.4,37.5,60.2,59.3,60.4,100   c0.1,29.1-24.7,51.3-49.7,61.9s-52.8,14.4-75.6,29.9c-34.4,23.3-50.5,68.5-57.1,111.8c-6.9,45-4.1,96.2,25.4,128.9   c36.6,40.6,97.1,36,148.9,27.3c69.1-11.5,137.9-25.1,206.7-38.7c150.8-29.7,301.6-59.5,452.4-89.2c16.2-3.2,33-6.7,46.1-17.4   c26.1-21.2,28.3-65,13.1-96.3s-43.2-52.5-71.1-70.9c-27.9-18.4-57.3-35.8-78.2-62.9c-20.9-27.1-31.3-67.3-15.5-98.2   c13.4-26.2,42.1-40.2,54.7-66.8c16.5-35.1-2.5-80-32.5-102.4S433.4,52,297.2,116.4z"/>
</g>
<path xmlns="http://www.w3.org/2000/svg" class="st2" d="M1019.5,1021h-959c-8.8,0-16-7.2-16-16V880.3c0-8.8,7.2-16,16-16h959c8.8,0,16,7.2,16,16V1005  C1035.5,1013.8,1028.3,1021,1019.5,1021z"/>
<path xmlns="http://www.w3.org/2000/svg" class="st3" d="M586,635c0,0,16.3,24.3,28.2,42.7c7.7,11.9,9.9,26.5,6,40.1C605.6,769.4,569,899,569,899l-32-2l31.6-178.9  c0.9-5.1-1-10.2-5-13.4C545.2,689.9,500.8,654,493,616c-9-44,67-43,67-43L586,635z"/>
<path xmlns="http://www.w3.org/2000/svg" class="st4" d="M247,909c0,0,27,61,27,69s-44,22-58,3c-11.3-15.4-15-47-17-54c-1.4-4.9,1.2-30,15.1-32  C231.9,896,247,909,247,909z"/>
<path xmlns="http://www.w3.org/2000/svg" class="st3" d="M332,548c2.6,24.4,5.7,76.2,7.5,108.6c0.9,16.9-4.2,33.6-14.5,47.1C290.5,748.9,222.5,855.7,210,909  c12,19,37,0,37,0s97.8-131.9,141.5-193.4c13.7-19.4,21.7-42.2,22.9-65.9c1.8-35.1,3.7-82.6,3.7-82.6L332,548z"/>
<path xmlns="http://www.w3.org/2000/svg" class="st5" d="M441,461c-102,15.8-140.4,79.3-155.1,82.9c36,41.8,181.1,126,239.6,104.7c16.1-25.6,7.8-45.7,7.8-45.7l24,40.6  c0,0,22.8,14.2,38.5-3.4C578,596.8,552.5,512.6,517,488C469.9,478.3,441,461,441,461z"/>
<path xmlns="http://www.w3.org/2000/svg" class="st3" d="M426.1,280.6c0,0-160.1,21.4-202.1,42.4c0,8,13,15,13,15s143.3-27.6,189.1-23.8  C457.9,296.8,426.1,280.6,426.1,280.6z"/>
<path xmlns="http://www.w3.org/2000/svg" class="st6" d="M517,276c-13-2-119,7-119,7s2,30,12,45c13-1,76-5,76-5l33-41L517,276z"/>
<path xmlns="http://www.w3.org/2000/svg" class="st3" d="M659.1,358.8C679,382,756,452,770,460s0,18,0,18s-123-66-152-105C613,353,659.1,358.8,659.1,358.8z"/>
<path xmlns="http://www.w3.org/2000/svg" class="st6" d="M661,361c-3,14-39,38-39,38l-33-36c0.2,0.4,5.8,12.3-3.6,36.5c-5.7,14.7-16.9,34-38.3,58  c-8.4,9.4-18.3,19.6-30.1,30.4c-66-19-76-27-76-27l3.2-25.8l9-72.4L458,324c0,0,45-46,74-48c32,1,38,7,38,7C608,297,650,348,661,361  z"/>
<path xmlns="http://www.w3.org/2000/svg" class="st7" d="M570.2,296.2C570,296,540,331,540,331l-20.8-42.3L570.2,296.2z"/>
<path xmlns="http://www.w3.org/2000/svg" class="st4" d="M615.4,254.3c-9.7,27.6-40.9,50.4-68.4,40.7s-41-48.2-31.3-75.8c9.7-27.6,39.9-42.1,67.5-32.4  C610.7,196.4,625.1,226.7,615.4,254.3z"/>
<path xmlns="http://www.w3.org/2000/svg" class="st3" d="M588,265.5c0,28.4-26.7,37.5-46,37.5s-27-13.6-27-42s15.7-47,35-47S588,237.1,588,265.5z"/>
<path xmlns="http://www.w3.org/2000/svg" class="st4" d="M531,226c4,4,9,9,13,9s17-8,21-7s12,28,16,29s9-1,9-1s-10-50-24-49s-46,5-49,23C517,241,518,242,531,226z"/>
<path xmlns="http://www.w3.org/2000/svg" class="st6" d="M519.2,236.7C529,221,540,211,562,218s26,46.1,26,46.1s18.6-51.8-29-57.1C523,203,519.2,236.7,519.2,236.7z"/>
<ellipse xmlns="http://www.w3.org/2000/svg" transform="matrix(0.3948 -0.9188 0.9188 0.3948 115.1265 700.7773)" class="st3" cx="589.5" cy="263" rx="10" ry="7.5"/>
<g xmlns="http://www.w3.org/2000/svg">
	<path class="st4" d="M581.8,190.9c29.2-32.9,80.8-43.5,120.6-24.6c16.6,7.9,31,20.2,48.3,26.5c17.4,6.3,37.2,6,54.4-0.9   c10.3-4.1,19.5-10.5,29.7-14.8s22.1-6.5,32.2-2.1c12.4,5.5,19,19.7,19.8,33.2c1,17-5.6,34.3-17.6,46.2   c-12.1,12-29.4,18.4-46.4,17.2c-24.9-1.8-45.7-18.5-65.9-33c-20.2-14.6-44.4-28.3-68.8-23.1c-10.7,2.3-20.4,8.1-31,10.3   c-14.2,3-29.2-0.6-42.2-7.1c-13-6.5-24.3-15.9-35.5-25.1"/>
</g>
<path xmlns="http://www.w3.org/2000/svg" class="st3" d="M818,502c-1.9,0.4-9.5-3.1-18.2-7.5c-0.4-0.2-0.8-0.4-1.2-0.6c-5.1-2.7-10.5-5.6-15.2-8.2  c-0.3-0.2-0.7-0.4-1-0.6c-7.1-4-12.5-7.1-12.5-7.1l6-14c0,0,47-2,50,0S823,501,818,502z"/>
<path xmlns="http://www.w3.org/2000/svg" class="st3" d="M224,323c-12,5-67,34-67,34c3,1,34-2,53-9c-3,7-11,13-9,16c4-5,39.1-26.6,39.1-26.6L224,323z"/>
<path xmlns="http://www.w3.org/2000/svg" class="st4" d="M566,889l75,34l3,11c0,0-123,1-122-6s17-44,17-44L566,889z"/>
<g xmlns="http://www.w3.org/2000/svg">
	<g>
		<g>
			<path class="st6" d="M772.5,501.5l-4.9-6.2c7.3-3.4,14.7-6.5,22.1-9.8l11.1-4.7l11.1-4.7c6.7-2.9,13.5-5.6,20.3-8.4     c0.6-0.3,1.3-0.5,1.9-0.8l11.1-4.5l5.4-2.2l0.1,0l1.4-0.6c0.5-0.2,0.9-0.4,1.4-0.5c1.1-0.2,2.3-0.2,4.2,0.6     c0.1,1.6-0.5,2.4-1.2,3c-0.4,0.3-0.8,0.5-1.3,0.7l-1.3,0.7l-0.1,0l-5.2,2.6l-10.6,5.2c-0.6,0.3-1.2,0.6-1.8,0.9     c-6.5,3.1-13,6.3-19.6,9.3l-10.8,5l-11,4.9C787.4,495.2,780,498.4,772.5,501.5z"/>
			<g>
				<path class="st6" d="M1023.6,380.4c-17.6-20.8-63.6-21.4-103.7-1.7c-18.1,8.8-32.2,20.1-40.9,31.8c-1.6,2.2-3,4.3-4.3,6.5      l-0.3,0.6c-4,7.4-5.8,14.7-4.8,21.5c0.7,4.5,2.5,8.7,5.6,12.5c3.1,3.8,7.3,7,12.4,9.4c7.7,3.8,17.4,6,28.1,6.7l0.8,0      c3.2,0.2,6.5,0.2,9.8,0.1c18.1-0.5,38.1-5.1,56.6-13.8C1023.9,434.4,1041.7,401.3,1023.6,380.4z M922.3,463      c-3.3,0-6.5-0.2-9.5-0.6c-13.6-1.6-24.7-6.2-31-13.8c-6.2-7.6-6.6-17-2.4-26.7c0.9-2.2,2.1-4.4,3.5-6.6      c7.6-11.9,21.6-23.8,40.2-32.7c36.8-18.1,78.7-17.8,94.4,0.8c16.1,18.7-0.5,48.6-38,66.6C960.6,459,940.1,463.2,922.3,463z"/>
			</g>
			<g>
				<path class="st6" d="M922.3,463c-3.3,0-6.5-0.2-9.5-0.6l0.1,0.1l-25.2-1.5l-29.4-1.7l11.4-20.2l9.6-17.3l0.1,0.1      c0.9-2.2,2.1-4.4,3.5-6.6l-3.9-4.8c-1.6,2.2-3,4.3-4.3,6.5l-0.3,0.6l-23.9,42.5l-2.1,3.6l5.3,0.3l62.1,3.6l0.8,0      c3.2,0.2,6.5,0.2,9.8,0.1L922.3,463z"/>
			</g>
		</g>
		<path class="st4" d="M772.5,501.5l-4.9-6.2c7.3-3.4,14.7-6.5,22.1-9.8l11.1-4.7l11.1-4.7c6.7-2.9,13.5-5.6,20.3-8.4l4.1,5    c-6.5,3.1-13,6.3-19.6,9.3l-10.8,5l-11,4.9C787.4,495.2,780,498.4,772.5,501.5z"/>
	</g>
</g>
<path xmlns="http://www.w3.org/2000/svg" class="st3" d="M807.5,488.9c0,0-4.9,2.8-8.9,4.9c-5.1-2.7-10.5-5.6-15.2-8.2l12.2-7.6l4.5,1.5c-0.9,2.6,2.3,8.8,6.6,7.1  C811.1,484.8,807.5,488.9,807.5,488.9z"/>
<circle xmlns="http://www.w3.org/2000/svg" class="st6" cx="316.4" cy="436.9" r="30.6"/>
<path xmlns="http://www.w3.org/2000/svg" class="st8" d="M585.4,399.6c-5.7,14.7-16.9,34-38.3,58c-27.4-4.3-73-12.4-102.9-22.4l9-72.4  C485.3,376.3,543.7,399.3,585.4,399.6z"/>
</svg>